<?xml version="1.0" encoding="utf-8"?>
<!-- Generator: Adobe Illustrator 27.0.0, SVG Export Plug-In . SVG Version: 6.00 Build 0)  -->
<svg version="1.1" id="Ebene_1" xmlns:serif="http://www.serif.com/"
	 xmlns="http://www.w3.org/2000/svg" xmlns:xlink="http://www.w3.org/1999/xlink" x="0px" y="0px" viewBox="0 0 456 456"
	 style="enable-background:new 0 0 456 456;" xml:space="preserve">
<style type="text/css">
	.st0{fill:#FFFFFF;}
</style>
<g>
	<g id="Ebene_1_00000088098751479573819590000015064176697625867930_">
		<path class="st0" d="M31.9,250.4v-45.9c0-2.6,2.1-4.7,4.7-4.7c2.6,0,4.7,2.1,4.7,4.7v45.9c0,2.6-2.1,4.7-4.7,4.7
			C34,255.1,31.9,253,31.9,250.4L31.9,250.4z"/>
		<path class="st0" d="M51,242.3c-0.1-2.6,0.3-5.1,1.2-7.5c1.2-3,3.5-4.2,6-3.8c2.2,0.3,3.7,2.3,3.5,4.5c0,0.3-0.1,0.6-0.2,0.9
			c-0.7,1.9-1.1,4-1.2,6.1c0,3.5,1.6,4.9,3.6,4.9c1.4,0.1,2.7-0.8,3.1-2.1c0.6-1.9,0.9-3.9,0.8-5.9c0-1.9-0.2-3.7-0.8-5.5
			c-0.8-2.3-2.4-4.2-5.2-6.2l-2.2-1.6c-4.8-3.6-7.5-7.9-7.5-13.9c0-8,4.8-12.6,12.3-12.6c6.8,0,11.6,3.3,11.6,11.7v0.9
			c0.1,2.4-1.7,4.4-4.1,4.5s-4.4-1.7-4.5-4.1c0-0.1,0-0.3,0-0.4v-0.5c0-2.7-1-3.9-2.8-3.9s-3,1.5-3,3.9c0,2.9,1,4.3,3.8,6.4l3.3,2.5
			c5.2,3.9,8.5,9.3,8.5,17.4c0,12-4.6,17.7-13.3,17.7C55.6,255.7,51,250.3,51,242.3z"/>
		<path class="st0" d="M86.7,249v-42.8c0-3.7,1.9-6.1,6.3-6.1h5.7c8.5,0,12.9,5.6,12.9,13.5v28c0,7.9-4.4,13.5-12.9,13.5H93
			C88.6,255.1,86.7,252.7,86.7,249z M98.1,246.8c2.6,0,4.1-1.9,4.1-6.7V215c0-4.9-1.5-6.7-4.1-6.7h-2.2v38.5H98.1z"/>
		<path class="st0" d="M134.9,241.7v-28.3c0-9.2,4.3-13.9,12.3-13.9c8.6,0,11.8,4.9,11.8,12.1v2.4c0.1,2.4-1.8,4.5-4.2,4.6
			c-0.1,0-0.2,0-0.3,0c-2.4,0.1-4.4-1.9-4.5-4.3c0-0.1,0-0.2,0-0.3v-0.5c0-3.6-0.9-5.1-2.6-5.1c-2.1,0-3.2,1.5-3.2,5.1v28
			c0,3.6,1.1,5.1,3.2,5.1c1.9,0,2.6-1.5,2.6-5.1v-0.4c-0.1-2.5,1.8-4.6,4.3-4.7c0.1,0,0.2,0,0.2,0c2.4-0.1,4.4,1.7,4.6,4.1
			c0,0.2,0,0.3,0,0.5v1.2c0,8.2-3.8,13.4-11.6,13.4S134.9,250.8,134.9,241.7z"/>
		<path class="st0" d="M167.5,242.7v-22.3c0-8.5,4.7-12.9,11.7-12.9c7.2,0,11.9,4.5,11.9,12.9v22.3c0,8.5-4.7,13-11.9,13
			C172.1,255.7,167.5,251.2,167.5,242.7z M182,242.7v-22c0-3.7-0.8-5-2.8-5c-1.8,0-2.6,1.3-2.6,5v22c0,3.7,0.8,4.9,2.6,4.9
			C181.1,247.5,181.9,246.4,182,242.7L182,242.7z"/>
		<path class="st0" d="M238.3,220.4v30c-0.1,2.5-2.2,4.4-4.8,4.3c-2.3-0.1-4.2-2-4.3-4.3v-29.8c0-3.7-0.8-5-2.6-5s-2.8,1.3-2.8,5
			v29.8c0,2.5-2,4.5-4.6,4.5s-4.6-2-4.6-4.5v-29.8c0-3.7-0.8-5-2.8-5c-1.8,0-2.6,1.3-2.6,5v29.8c-0.1,2.5-2.2,4.4-4.8,4.3
			c-2.3-0.1-4.2-2-4.3-4.3v-30c0-8.5,4.7-13,11.5-13c2.9,0,5.6,0.8,7.6,2.9c1.9-2.2,4.6-2.9,7.6-2.9
			C233.6,207.4,238.3,211.9,238.3,220.4z"/>
		<path class="st0" d="M271.1,220.2v22.5c0,8.5-4.7,13-11.9,13c-0.9,0-1.8-0.1-2.6-0.4v8.2c0,2.5-2,4.6-4.5,4.6s-4.6-2-4.6-4.6
			v-43.3c0-8.5,4.7-12.9,11.7-12.9C266.2,207.3,271.1,211.8,271.1,220.2z M262,220.4c0-3.7-0.8-5-2.8-5c-1.8,0-2.6,1.3-2.6,5v21.8
			c0,3.6,1,5.3,2.6,5.3c2,0,2.8-1.2,2.8-4.9V220.4z"/>
		<path class="st0" d="M302.9,220.4v30c0,2.5-2,4.5-4.5,4.5h-0.1c-1,0-1.9-0.3-2.7-0.9c-1.6,1-3.5,1.6-5.5,1.6
			c-6.5,0-10.8-3.9-10.8-11.1v-8.7c0-7.4,4.2-11.2,10.8-11.2c1.3,0,2.5,0.3,3.7,0.8v-5c0-3.5-0.9-4.5-2.5-4.5
			c-1.8,0-2.6,1.2-2.6,3.3v0.2c0.1,2.3-1.7,4.2-3.9,4.2c-0.1,0-0.2,0-0.3,0c-2.6,0-4.3-1.8-4.3-4.6v-0.6c0-6.2,4.1-10.6,11.1-10.6
			C299.1,207.7,302.9,212.1,302.9,220.4z M293.9,237.1c0-3.6-1.1-5.3-2.9-5.3c-1.9,0-2.7,1.2-2.7,4.9v6.9c0,3.6,0.9,4.9,2.7,4.9
			c1.7,0,2.9-1.9,2.9-5.4V237.1z"/>
		<path class="st0" d="M312.1,250.4v-30c0-8.5,4.7-13,11.7-13s11.9,4.5,11.9,13v30c-0.1,2.5-2.2,4.4-4.8,4.3c-2.3-0.1-4.2-2-4.3-4.3
			v-29.8c0-3.7-0.8-5-2.8-5c-1.8,0-2.6,1.3-2.6,5v29.8c0,2.5-2,4.5-4.6,4.5C314.2,255,312.1,253,312.1,250.4z"/>
		<path class="st0" d="M345.5,201.1c0-2.6,2.1-4.6,4.6-4.6c2.6,0,4.6,2.1,4.6,4.6s-2.1,4.6-4.6,4.6s-4.6-2-4.6-4.5
			C345.5,201.2,345.5,201.2,345.5,201.1z M345.5,250.5v-37.6c0-2.5,2-4.5,4.5-4.5s4.6,2,4.6,4.5v37.6c0,2.5-2,4.5-4.6,4.5
			C347.6,255,345.5,253,345.5,250.5L345.5,250.5z"/>
		<path class="st0" d="M364.5,242.7v-22.3c0-8.5,4.7-12.9,11.7-12.9c7.2,0,11.9,4.5,11.9,12.9v22.3c0,8.5-4.7,13-11.9,13
			C369.2,255.7,364.5,251.2,364.5,242.7z M379,242.7v-22c0-3.7-0.8-5-2.8-5c-1.8,0-2.6,1.3-2.6,5v22c0,3.7,0.9,4.9,2.6,4.9
			C378.2,247.5,379,246.4,379,242.7z"/>
		<path class="st0" d="M397.3,250.4v-30c0-8.5,4.7-13,11.7-13c7.2,0,11.9,4.5,11.9,13v30c-0.1,2.5-2.2,4.4-4.8,4.3
			c-2.3-0.1-4.2-2-4.3-4.3v-29.8c0-3.7-0.8-5-2.8-5c-1.8,0-2.6,1.3-2.6,5v29.8c-0.1,2.5-2.2,4.4-4.8,4.3
			C399.3,254.7,397.5,252.8,397.3,250.4z"/>
	</g>
</g>
</svg>
